<mxfile host="app.diagrams.net" modified="2024-01-01T00:00:00.000Z" agent="5.0" etag="xxxxx" version="24.7.17" type="device">
  <diagram name="CDK-Architecture" id="f1748f8e-03ce-e6dc-61d6-5ae83e2105ba">
    <mxGraphModel dx="1422" dy="789" grid="1" gridSize="10" guides="1" tooltips="1" connect="1" arrows="1" fold="1" page="1" pageScale="1" pageWidth="1654" pageHeight="1169" background="none" math="0" shadow="0">
      <root>
        <mxCell id="0" />
        <mxCell id="1" parent="0" />
        
        <!-- Title -->
        <mxCell id="title" value="Chaos Engineering Platform - CDK Architecture" style="text;fontSize=20;fontStyle=1;fontColor=#000000;align=center;" vertex="1" parent="1">
          <mxGeometry x="520" y="30" width="400" height="30" as="geometry" />
        </mxCell>
        
        <!-- User -->
        <mxCell id="user" value="User" style="shape=umlActor;verticalLabelPosition=bottom;verticalAlign=top;html=1;outlineConnect=0;" vertex="1" parent="1">
          <mxGeometry x="80" y="150" width="30" height="60" as="geometry" />
        </mxCell>
        
        <!-- CloudFront -->
        <mxCell id="cloudfront" value="CloudFront&#xa;(CDN)" style="sketch=0;points=[[0,0,0],[0.25,0,0],[0.5,0,0],[0.75,0,0],[1,0,0],[0,1,0],[0.25,1,0],[0.5,1,0],[0.75,1,0],[1,1,0],[0,0.25,0],[0,0.5,0],[0,0.75,0],[1,0.25,0],[1,0.5,0],[1,0.75,0]];outlineConnect=0;fontColor=#232F3E;fillColor=#8C4FFF;strokeColor=#ffffff;dashed=0;verticalLabelPosition=bottom;verticalAlign=top;align=center;html=1;fontSize=12;fontStyle=0;aspect=fixed;shape=mxgraph.aws4.resourceIcon;resIcon=mxgraph.aws4.cloudfront;" vertex="1" parent="1">
          <mxGeometry x="250" y="140" width="78" height="78" as="geometry" />
        </mxCell>
        
        <!-- S3 Frontend Bucket -->
        <mxCell id="s3-frontend" value="S3 Bucket&#xa;(Frontend)" style="sketch=0;points=[[0,0,0],[0.25,0,0],[0.5,0,0],[0.75,0,0],[1,0,0],[0,1,0],[0.25,1,0],[0.5,1,0],[0.75,1,0],[1,1,0],[0,0.25,0],[0,0.5,0],[0,0.75,0],[1,0.25,0],[1,0.5,0],[1,0.75,0]];outlineConnect=0;fontColor=#232F3E;fillColor=#7AA116;strokeColor=#ffffff;dashed=0;verticalLabelPosition=bottom;verticalAlign=top;align=center;html=1;fontSize=12;fontStyle=0;aspect=fixed;shape=mxgraph.aws4.resourceIcon;resIcon=mxgraph.aws4.s3;" vertex="1" parent="1">
          <mxGeometry x="250" y="300" width="78" height="78" as="geometry" />
        </mxCell>
        
        <!-- API Gateway -->
        <mxCell id="api-gateway" value="API Gateway&#xa;(REST API)" style="sketch=0;points=[[0,0,0],[0.25,0,0],[0.5,0,0],[0.75,0,0],[1,0,0],[0,1,0],[0.25,1,0],[0.5,1,0],[0.75,1,0],[1,1,0],[0,0.25,0],[0,0.5,0],[0,0.75,0],[1,0.25,0],[1,0.5,0],[1,0.75,0]];outlineConnect=0;fontColor=#232F3E;fillColor=#FF4F8B;strokeColor=#ffffff;dashed=0;verticalLabelPosition=bottom;verticalAlign=top;align=center;html=1;fontSize=12;fontStyle=0;aspect=fixed;shape=mxgraph.aws4.resourceIcon;resIcon=mxgraph.aws4.api_gateway;" vertex="1" parent="1">
          <mxGeometry x="450" y="140" width="78" height="78" as="geometry" />
        </mxCell>
        
        <!-- UI Handler Lambda -->
        <mxCell id="ui-handler" value="UI Handler&#xa;Lambda" style="sketch=0;points=[[0,0,0],[0.25,0,0],[0.5,0,0],[0.75,0,0],[1,0,0],[0,1,0],[0.25,1,0],[0.5,1,0],[0.75,1,0],[1,1,0],[0,0.25,0],[0,0.5,0],[0,0.75,0],[1,0.25,0],[1,0.5,0],[1,0.75,0]];outlineConnect=0;fontColor=#232F3E;fillColor=#ED7100;strokeColor=#ffffff;dashed=0;verticalLabelPosition=bottom;verticalAlign=top;align=center;html=1;fontSize=12;fontStyle=0;aspect=fixed;shape=mxgraph.aws4.resourceIcon;resIcon=mxgraph.aws4.lambda;" vertex="1" parent="1">
          <mxGeometry x="650" y="140" width="78" height="78" as="geometry" />
        </mxCell>
        
        <!-- Step Functions -->
        <mxCell id="step-functions" value="Step Functions&#xa;(Workflow)" style="sketch=0;points=[[0,0,0],[0.25,0,0],[0.5,0,0],[0.75,0,0],[1,0,0],[0,1,0],[0.25,1,0],[0.5,1,0],[0.75,1,0],[1,1,0],[0,0.25,0],[0,0.5,0],[0,0.75,0],[1,0.25,0],[1,0.5,0],[1,0.75,0]];outlineConnect=0;fontColor=#232F3E;fillColor=#FF4F8B;strokeColor=#ffffff;dashed=0;verticalLabelPosition=bottom;verticalAlign=top;align=center;html=1;fontSize=12;fontStyle=0;aspect=fixed;shape=mxgraph.aws4.resourceIcon;resIcon=mxgraph.aws4.step_functions;" vertex="1" parent="1">
          <mxGeometry x="650" y="300" width="78" height="78" as="geometry" />
        </mxCell>
        
        <!-- S3 Template Bucket -->
        <mxCell id="s3-template" value="S3 Bucket&#xa;(Templates)" style="sketch=0;points=[[0,0,0],[0.25,0,0],[0.5,0,0],[0.75,0,0],[1,0,0],[0,1,0],[0.25,1,0],[0.5,1,0],[0.75,1,0],[1,1,0],[0,0.25,0],[0,0.5,0],[0,0.75,0],[1,0.25,0],[1,0.5,0],[1,0.75,0]];outlineConnect=0;fontColor=#232F3E;fillColor=#7AA116;strokeColor=#ffffff;dashed=0;verticalLabelPosition=bottom;verticalAlign=top;align=center;html=1;fontSize=12;fontStyle=0;aspect=fixed;shape=mxgraph.aws4.resourceIcon;resIcon=mxgraph.aws4.s3;" vertex="1" parent="1">
          <mxGeometry x="450" y="300" width="78" height="78" as="geometry" />
        </mxCell>
        
        <!-- Scenario Generator Lambda -->
        <mxCell id="scenario-generator" value="Scenario Generator&#xa;Lambda" style="sketch=0;points=[[0,0,0],[0.25,0,0],[0.5,0,0],[0.75,0,0],[1,0,0],[0,1,0],[0.25,1,0],[0.5,1,0],[0.75,1,0],[1,1,0],[0,0.25,0],[0,0.5,0],[0,0.75,0],[1,0.25,0],[1,0.5,0],[1,0.75,0]];outlineConnect=0;fontColor=#232F3E;fillColor=#ED7100;strokeColor=#ffffff;dashed=0;verticalLabelPosition=bottom;verticalAlign=top;align=center;html=1;fontSize=12;fontStyle=0;aspect=fixed;shape=mxgraph.aws4.resourceIcon;resIcon=mxgraph.aws4.lambda;" vertex="1" parent="1">
          <mxGeometry x="450" y="480" width="78" height="78" as="geometry" />
        </mxCell>
        
        <!-- Scenario Analyzer Lambda -->
        <mxCell id="scenario-analyzer" value="Scenario Analyzer&#xa;Lambda" style="sketch=0;points=[[0,0,0],[0.25,0,0],[0.5,0,0],[0.75,0,0],[1,0,0],[0,1,0],[0.25,1,0],[0.5,1,0],[0.75,1,0],[1,1,0],[0,0.25,0],[0,0.5,0],[0,0.75,0],[1,0.25,0],[1,0.5,0],[1,0.75,0]];outlineConnect=0;fontColor=#232F3E;fillColor=#ED7100;strokeColor=#ffffff;dashed=0;verticalLabelPosition=bottom;verticalAlign=top;align=center;html=1;fontSize=12;fontStyle=0;aspect=fixed;shape=mxgraph.aws4.resourceIcon;resIcon=mxgraph.aws4.lambda;" vertex="1" parent="1">
          <mxGeometry x="650" y="480" width="78" height="78" as="geometry" />
        </mxCell>
        
        <!-- Deployer Lambda -->
        <mxCell id="deployer" value="Deployer&#xa;Lambda" style="sketch=0;points=[[0,0,0],[0.25,0,0],[0.5,0,0],[0.75,0,0],[1,0,0],[0,1,0],[0.25,1,0],[0.5,1,0],[0.75,1,0],[1,1,0],[0,0.25,0],[0,0.5,0],[0,0.75,0],[1,0.25,0],[1,0.5,0],[1,0.75,0]];outlineConnect=0;fontColor=#232F3E;fillColor=#ED7100;strokeColor=#ffffff;dashed=0;verticalLabelPosition=bottom;verticalAlign=top;align=center;html=1;fontSize=12;fontStyle=0;aspect=fixed;shape=mxgraph.aws4.resourceIcon;resIcon=mxgraph.aws4.lambda;" vertex="1" parent="1">
          <mxGeometry x="850" y="480" width="78" height="78" as="geometry" />
        </mxCell>
        
        <!-- Bedrock -->
        <mxCell id="bedrock" value="Bedrock&#xa;(Claude AI)" style="sketch=0;points=[[0,0,0],[0.25,0,0],[0.5,0,0],[0.75,0,0],[1,0,0],[0,1,0],[0.25,1,0],[0.5,1,0],[0.75,1,0],[1,1,0],[0,0.25,0],[0,0.5,0],[0,0.75,0],[1,0.25,0],[1,0.5,0],[1,0.75,0]];outlineConnect=0;fontColor=#232F3E;fillColor=#01A88D;strokeColor=#ffffff;dashed=0;verticalLabelPosition=bottom;verticalAlign=top;align=center;html=1;fontSize=12;fontStyle=0;aspect=fixed;shape=mxgraph.aws4.resourceIcon;resIcon=mxgraph.aws4.bedrock;" vertex="1" parent="1">
          <mxGeometry x="450" y="650" width="78" height="78" as="geometry" />
        </mxCell>
        
        <!-- CloudFormation -->
        <mxCell id="cloudformation" value="CloudFormation&#xa;(Infrastructure)" style="sketch=0;points=[[0,0,0],[0.25,0,0],[0.5,0,0],[0.75,0,0],[1,0,0],[0,1,0],[0.25,1,0],[0.5,1,0],[0.75,1,0],[1,1,0],[0,0.25,0],[0,0.5,0],[0,0.75,0],[1,0.25,0],[1,0.5,0],[1,0.75,0]];outlineConnect=0;fontColor=#232F3E;fillColor=#E7157B;strokeColor=#ffffff;dashed=0;verticalLabelPosition=bottom;verticalAlign=top;align=center;html=1;fontSize=12;fontStyle=0;aspect=fixed;shape=mxgraph.aws4.resourceIcon;resIcon=mxgraph.aws4.cloudformation;" vertex="1" parent="1">
          <mxGeometry x="850" y="650" width="78" height="78" as="geometry" />
        </mxCell>
        
        <!-- FIS -->
        <mxCell id="fis" value="FIS&#xa;(Fault Injection)" style="sketch=0;points=[[0,0,0],[0.25,0,0],[0.5,0,0],[0.75,0,0],[1,0,0],[0,1,0],[0.25,1,0],[0.5,1,0],[0.75,1,0],[1,1,0],[0,0.25,0],[0,0.5,0],[0,0.75,0],[1,0.25,0],[1,0.5,0],[1,0.75,0]];outlineConnect=0;fontColor=#232F3E;fillColor=#F58536;strokeColor=#ffffff;dashed=0;verticalLabelPosition=bottom;verticalAlign=top;align=center;html=1;fontSize=12;fontStyle=0;aspect=fixed;shape=mxgraph.aws4.resourceIcon;resIcon=mxgraph.aws4.fault_injection_simulator;" vertex="1" parent="1">
          <mxGeometry x="1050" y="650" width="78" height="78" as="geometry" />
        </mxCell>
        
        <!-- Connections -->
        <!-- User to CloudFront -->
        <mxCell id="user-cloudfront" value="HTTPS" style="endArrow=classic;html=1;rounded=0;entryX=0;entryY=0.5;entryDx=0;entryDy=0;entryPerimeter=0;exitX=1;exitY=0.5;exitDx=0;exitDy=0;exitPerimeter=0;" edge="1" parent="1" source="user" target="cloudfront">
          <mxGeometry width="50" height="50" relative="1" as="geometry">
            <mxPoint x="120" y="180" as="sourcePoint" />
            <mxPoint x="170" y="130" as="targetPoint" />
          </mxGeometry>
        </mxCell>
        
        <!-- CloudFront to S3 Frontend -->
        <mxCell id="cloudfront-s3" value="Origin" style="endArrow=classic;html=1;rounded=0;entryX=0.5;entryY=0;entryDx=0;entryDy=0;entryPerimeter=0;exitX=0.5;exitY=1;exitDx=0;exitDy=0;exitPerimeter=0;" edge="1" parent="1" source="cloudfront" target="s3-frontend">
          <mxGeometry width="50" height="50" relative="1" as="geometry">
            <mxPoint x="290" y="250" as="sourcePoint" />
            <mxPoint x="340" y="200" as="targetPoint" />
          </mxGeometry>
        </mxCell>
        
        <!-- CloudFront to API Gateway -->
        <mxCell id="cloudfront-api" value="/api/*" style="endArrow=classic;html=1;rounded=0;entryX=0;entryY=0.5;entryDx=0;entryDy=0;entryPerimeter=0;exitX=1;exitY=0.5;exitDx=0;exitDy=0;exitPerimeter=0;" edge="1" parent="1" source="cloudfront" target="api-gateway">
          <mxGeometry width="50" height="50" relative="1" as="geometry">
            <mxPoint x="330" y="179" as="sourcePoint" />
            <mxPoint x="380" y="129" as="targetPoint" />
          </mxGeometry>
        </mxCell>
        
        <!-- API Gateway to UI Handler -->
        <mxCell id="api-ui" value="Lambda&#xa;Integration" style="endArrow=classic;html=1;rounded=0;entryX=0;entryY=0.5;entryDx=0;entryDy=0;entryPerimeter=0;exitX=1;exitY=0.5;exitDx=0;exitDy=0;exitPerimeter=0;" edge="1" parent="1" source="api-gateway" target="ui-handler">
          <mxGeometry width="50" height="50" relative="1" as="geometry">
            <mxPoint x="530" y="179" as="sourcePoint" />
            <mxPoint x="580" y="129" as="targetPoint" />
          </mxGeometry>
        </mxCell>
        
        <!-- UI Handler to Step Functions -->
        <mxCell id="ui-step" value="Trigger" style="endArrow=classic;html=1;rounded=0;entryX=0.5;entryY=0;entryDx=0;entryDy=0;entryPerimeter=0;exitX=0.5;exitY=1;exitDx=0;exitDy=0;exitPerimeter=0;" edge="1" parent="1" source="ui-handler" target="step-functions">
          <mxGeometry width="50" height="50" relative="1" as="geometry">
            <mxPoint x="690" y="230" as="sourcePoint" />
            <mxPoint x="740" y="180" as="targetPoint" />
          </mxGeometry>
        </mxCell>
        
        <!-- Step Functions to Lambdas -->
        <mxCell id="step-scenario" value="1. Generate" style="endArrow=classic;html=1;rounded=0;entryX=0.5;entryY=0;entryDx=0;entryDy=0;entryPerimeter=0;exitX=0;exitY=1;exitDx=0;exitDy=0;exitPerimeter=0;" edge="1" parent="1" source="step-functions" target="scenario-generator">
          <mxGeometry width="50" height="50" relative="1" as="geometry">
            <mxPoint x="650" y="380" as="sourcePoint" />
            <mxPoint x="700" y="330" as="targetPoint" />
          </mxGeometry>
        </mxCell>
        
        <mxCell id="step-analyzer" value="2. Analyze" style="endArrow=classic;html=1;rounded=0;entryX=0.5;entryY=0;entryDx=0;entryDy=0;entryPerimeter=0;exitX=0.5;exitY=1;exitDx=0;exitDy=0;exitPerimeter=0;" edge="1" parent="1" source="step-functions" target="scenario-analyzer">
          <mxGeometry width="50" height="50" relative="1" as="geometry">
            <mxPoint x="690" y="380" as="sourcePoint" />
            <mxPoint x="740" y="330" as="targetPoint" />
          </mxGeometry>
        </mxCell>
        
        <mxCell id="step-deployer" value="3. Deploy" style="endArrow=classic;html=1;rounded=0;entryX=0.5;entryY=0;entryDx=0;entryDy=0;entryPerimeter=0;exitX=1;exitY=1;exitDx=0;exitDy=0;exitPerimeter=0;" edge="1" parent="1" source="step-functions" target="deployer">
          <mxGeometry width="50" height="50" relative="1" as="geometry">
            <mxPoint x="730" y="380" as="sourcePoint" />
            <mxPoint x="780" y="330" as="targetPoint" />
          </mxGeometry>
        </mxCell>
        
        <!-- S3 Template connections -->
        <mxCell id="s3-scenario" value="Read&#xa;Templates" style="endArrow=classic;html=1;rounded=0;entryX=0.5;entryY=0;entryDx=0;entryDy=0;entryPerimeter=0;exitX=0.5;exitY=1;exitDx=0;exitDy=0;exitPerimeter=0;" edge="1" parent="1" source="s3-template" target="scenario-generator">
          <mxGeometry width="50" height="50" relative="1" as="geometry">
            <mxPoint x="490" y="390" as="sourcePoint" />
            <mxPoint x="540" y="340" as="targetPoint" />
          </mxGeometry>
        </mxCell>
        
        <mxCell id="s3-analyzer" value="Store&#xa;Generated" style="endArrow=classic;html=1;rounded=0;entryX=0;entryY=0.5;entryDx=0;entryDy=0;entryPerimeter=0;exitX=1;exitY=0.5;exitDx=0;exitDy=0;exitPerimeter=0;" edge="1" parent="1" source="s3-template" target="scenario-analyzer">
          <mxGeometry width="50" height="50" relative="1" as="geometry">
            <mxPoint x="530" y="339" as="sourcePoint" />
            <mxPoint x="580" y="289" as="targetPoint" />
          </mxGeometry>
        </mxCell>
        
        <!-- External Services -->
        <mxCell id="scenario-bedrock" value="AI Model&#xa;Invoke" style="endArrow=classic;html=1;rounded=0;entryX=0.5;entryY=0;entryDx=0;entryDy=0;entryPerimeter=0;exitX=0.5;exitY=1;exitDx=0;exitDy=0;exitPerimeter=0;" edge="1" parent="1" source="scenario-generator" target="bedrock">
          <mxGeometry width="50" height="50" relative="1" as="geometry">
            <mxPoint x="490" y="570" as="sourcePoint" />
            <mxPoint x="540" y="520" as="targetPoint" />
          </mxGeometry>
        </mxCell>
        
        <mxCell id="deployer-cf" value="Deploy&#xa;Stack" style="endArrow=classic;html=1;rounded=0;entryX=0.5;entryY=0;entryDx=0;entryDy=0;entryPerimeter=0;exitX=0.5;exitY=1;exitDx=0;exitDy=0;exitPerimeter=0;" edge="1" parent="1" source="deployer" target="cloudformation">
          <mxGeometry width="50" height="50" relative="1" as="geometry">
            <mxPoint x="890" y="570" as="sourcePoint" />
            <mxPoint x="940" y="520" as="targetPoint" />
          </mxGeometry>
        </mxCell>
        
        <mxCell id="deployer-fis" value="Execute&#xa;Experiments" style="endArrow=classic;html=1;rounded=0;entryX=0;entryY=0.5;entryDx=0;entryDy=0;entryPerimeter=0;exitX=1;exitY=0.5;exitDx=0;exitDy=0;exitPerimeter=0;" edge="1" parent="1" source="deployer" target="fis">
          <mxGeometry width="50" height="50" relative="1" as="geometry">
            <mxPoint x="930" y="519" as="sourcePoint" />
            <mxPoint x="980" y="469" as="targetPoint" />
          </mxGeometry>
        </mxCell>
        
        <!-- Flow Labels -->
        <mxCell id="flow1" value="Frontend Layer" style="text;fontSize=14;fontStyle=1;fontColor=#0066CC;align=left;" vertex="1" parent="1">
          <mxGeometry x="80" y="100" width="120" height="30" as="geometry" />
        </mxCell>
        
        <mxCell id="flow2" value="API Layer" style="text;fontSize=14;fontStyle=1;fontColor=#0066CC;align=left;" vertex="1" parent="1">
          <mxGeometry x="450" y="100" width="120" height="30" as="geometry" />
        </mxCell>
        
        <mxCell id="flow3" value="Processing Layer" style="text;fontSize=14;fontStyle=1;fontColor=#0066CC;align=left;" vertex="1" parent="1">
          <mxGeometry x="450" y="430" width="120" height="30" as="geometry" />
        </mxCell>
        
        <mxCell id="flow4" value="External Services" style="text;fontSize=14;fontStyle=1;fontColor=#0066CC;align=left;" vertex="1" parent="1">
          <mxGeometry x="450" y="600" width="120" height="30" as="geometry" />
        </mxCell>
        
        <!-- Workflow Steps -->
        <mxCell id="workflow" value="Workflow: 1. User → CloudFront → React UI&#xa;2. UI → API Gateway → UI Handler Lambda&#xa;3. UI Handler → Step Functions → Scenario Generation&#xa;4. Scenario Generator → Bedrock AI → Generate Scenarios&#xa;5. Scenario Analyzer → Generate CDK Code&#xa;6. Deployer → CloudFormation + FIS Experiments" style="text;fontSize=11;fontColor=#666666;align=left;verticalAlign=top;" vertex="1" parent="1">
          <mxGeometry x="1200" y="140" width="400" height="120" as="geometry" />
        </mxCell>
        
        <!-- CDK Constructs Box -->
        <mxCell id="cdk-box" value="CDK Constructs" style="rounded=1;whiteSpace=wrap;html=1;fillColor=#f0f0f0;strokeColor=#999999;verticalAlign=top;fontSize=14;fontStyle=1;align=left;" vertex="1" parent="1">
          <mxGeometry x="1200" y="300" width="400" height="200" as="geometry" />
        </mxCell>
        
        <mxCell id="cdk-content" value="• StepFunctionScenarioGen.ts&#xa;  - Step Functions State Machine&#xa;  - Scenario Generator Lambda&#xa;  - Scenario Analyzer Lambda&#xa;  - Deployer Lambda&#xa;  - S3 Template Bucket&#xa;&#xa;• ApiGateway.ts&#xa;  - REST API Endpoints&#xa;  - UI Handler Lambda&#xa;  - CORS Configuration&#xa;&#xa;• FrontendHosting.ts&#xa;  - S3 Static Hosting&#xa;  - CloudFront Distribution&#xa;  - Origin Access Identity" style="text;fontSize=11;fontColor=#333333;align=left;verticalAlign=top;" vertex="1" parent="1">
          <mxGeometry x="1220" y="330" width="360" height="150" as="geometry" />
        </mxCell>
        
      </root>
    </mxGraphModel>
  </diagram>
</mxfile>